PathFileType	4	(X/Y/Z)	C:/Users/beibeiliu/ov580/test_trc/User1\sequence.1_training_dense_left.trc
DataRate	CameraRate	NumFrames	NumMarkers	Units	OrigDataRate	OrigDataStartFrame	OrigNumFrames
120	120	14	19	mm	120	37	294
Frame#	Time	ThumbCMC			ThumbMCP			ThumbIP			ThumbTip			IndexMCP			IndexPIP			IndexTip			MiddleMCP			MiddlePIP			MiddleTip			RingMCP			RingPIP			RingTip			PinkyMCP			PinkyPIP			PinkyTip			BackHand1			BackHand2			BackHand3	
		X0	Y0	Z0	X1	Y1	Z1	X2	Y2	Z2	X3	Y3	Z3	X4	Y4	Z4	X5	Y5	Z5	X6	Y6	Z6	X7	Y7	Z7	X8	Y8	Z8	X9	Y9	Z9	X10	Y10	Z10	X11	Y11	Z11	X12	Y12	Z12	X13	Y13	Z13	X14	Y14	Z14	X15	Y15	Z15	X16	Y16	Z16	X17	Y17	Z17	X18	Y18	Z18	
36	0.3	-166.518	69.1551	77.7493	-140.787	69.8313	57.8821	-124.804	71.255	39.1815	-103.288	75.936	23.6973	-173.964	52.4786	-11.374	-166.395	43.3827	-34.9393	-155.51	26.221	-55.8508	-189.999	34.4019	-19.648	-175.374	24.9545	-43.6906	-159.283	3.23329	-63.2262	-199.789	11.4605	-10.8005	-183.267	-1.15646	-32.3594	-157.411	-19.3237	-44.6179	-205.172	-10.432	5.55393	-191.389	-21.3236	-8.16967	-172.834	-35.1925	-22.6645	-223.329	29.8672	42.6113	-229.724	37.1113	73.3784	-204.231	58.9213	57.813	
37	0.308333	-172.559	72.0789	72.8925	-146.625	76.65	52.9373	-131.172	78.9143	35.6617	-111.665	84.6529	19.2142	-176.658	52.5269	-16.5408	-166.147	43.1746	-39.1846	-149.843	28.8182	-56.6396	-191.635	31.4228	-18.4558	-174.157	20.9679	-43.8761	-152.444	2.36112	-59.2785	-197.721	7.80384	-10.6982	-174.163	-2.57382	-33.6153	-149.866	-21.3152	-40	-203.747	-12.6242	10.8772	-185.798	-24.5329	-4.43534	-164.791	-27.9874	-19.1756	-221.045	30.6773	44.1786	-232.116	31.1668	74.5596	-206.97	62.2079	54.5232	
38	0.316667	-180.269	74.8255	69.3217	-152.324	85.0261	51.0174	-138.078	88.9843	28.4354	-122.611	88.2673	12.8021	-181.739	54.6228	-15.1959	-166.267	45.7455	-41.5007	-148.911	27.1182	-56.1181	-190.379	33.5784	-21.1027	-171.193	19.8301	-45.2692	-142.643	2.91414	-58.6076	-192.215	8.21068	-13.0416	-170.689	-3.44896	-32.5293	-143.794	-14.4815	-36.6589	-193.6	-13.746	9.09066	-176.485	-24.9689	-3.54893	-148.488	-28.4009	-17.0281	-220.638	22.8832	42.7744	-228.635	31.5045	72.839	-212.911	61.3346	52.7268	
39	0.325	-187.742	77.1058	64.9883	-163.551	86.3883	46.4006	-148.283	93.4714	19.1834	-131.826	95.754	-1.43236	-185.088	50.9327	-22.4784	-172.172	43.6777	-41.9706	-145.907	30.2432	-57.2968	-191.33	24.7273	-25.26	-168.23	17.3992	-47.039	-141.146	6.94778	-55.4959	-189.691	6.66067	-13.0551	-164.664	-3.93252	-32.3726	-134.435	-11.2083	-35.4414	-185.21	-16.439	8.55116	-165.249	-22.2598	-3.80167	-137.826	-19.107	-13.3729	-220.279	21.707	40.5655	-227.48	23.9582	72.3809	-216.949	58.4479	52.097	
40	0.333333	-192.418	84.2097	59.7387	-171.197	91.9089	37.9491	-158.63	97.8829	13.3348	-142.622	101.295	-6.34562	-190.893	48.0128	-24.7169	-173.522	42.5355	-45.4676	-148.164	31.3342	-56.0382	-192.523	23.0376	-25.4688	-170.483	17.604	-47.547	-136.844	16.3577	-56.9888	-187.49	2.15002	-13.0367	-163.188	-1.98914	-33.4855	-129.939	-0.511923	-35.636	-181.849	-13.2477	10.219	-159.338	-19.7351	-2.55331	-134.61	-10.4937	-15.7419	-217.527	13.3619	38.2793	-225.676	21.619	72.6737	-221.854	52.2427	49.7004	
41	0.341667	-200.231	85.4515	57.5112	-178.775	94.1309	37.695	-166.466	101.389	6.84786	-153.431	101.058	-12.322	-196.434	49.6452	-23.8306	-180.299	42.0213	-46.1756	-151.276	34.4991	-55.8988	-193.87	21.0982	-27.0909	-171.234	18.7237	-49.8792	-136.481	16.4128	-55.9973	-185.934	1.15928	-12.5136	-160.857	2.79196	-33.7624	-130.092	8.44351	-35.3378	-174.178	-14.7151	10.7572	-152.407	-13.1285	-3.28015	-125.846	-2.80156	-14.2302	-215.429	13.9187	39.6736	-223.209	22.5005	72.0467	-223.745	52.4244	49.7698	
42	0.35	-204.567	82.7449	54.2024	-187.695	99.6065	33.059	-176.582	98.7699	4.51195	-163.669	102.403	-13.4718	-202.616	50.5694	-25.0918	-181.527	42.5605	-49.7114	-150.956	41.3789	-60.1244	-194.758	21.3432	-28.4037	-171.877	18.6323	-50.4837	-136.462	27.066	-58.8083	-183.221	3.17011	-12.0482	-155.089	2.76255	-32.4478	-128.13	14.8998	-34.3328	-169.328	-10.5813	11.4326	-148.404	-6.24494	-3.26075	-126.7	6.58974	-15.0493	-214.706	13.6357	42.4063	-221.354	19.6919	74.3391	-225.713	48.8642	49.9065	
43	0.358333	-210.269	84.5466	55.2865	-194.29	96.6668	31.2703	-185.631	103.018	6.9814	-171.968	106.451	-18.5925	-204.236	44.9106	-25.0434	-189.891	43.8892	-49.5267	-160.292	42.8645	-60.6938	-197.257	20.7395	-24.0815	-174.402	23.4804	-53.2531	-142.03	29.2657	-58.9284	-180.832	6.20025	-15.0748	-157.63	7.74305	-32.7092	-126.625	19.1965	-33.44	-167.027	-4.40086	8.29249	-146.765	-1.36688	-3.00288	-127.893	11.8491	-15.1788	-213.58	13.7106	39.6974	-219.661	15.807	75.6803	-227.936	48.9628	50.534	
44	0.366667	-213.028	81.5804	58.4561	-200.707	101.844	31.2168	-194.509	107.283	1.09227	-182.195	107.296	-17.841	-209.104	48.7258	-23.4726	-193.981	43.4118	-48.4799	-162.471	46.3258	-62.2586	-200.651	25.0188	-23.5914	-179.531	23.4477	-49.8767	-146.125	35.1501	-62.0254	-179.461	7.77722	-15.2126	-157.96	11.9986	-33.2139	-127.802	26.5531	-34.3037	-167.735	-1.08543	11.5317	-143.284	5.32207	-4.41345	-126.567	24.3873	-17.6519	-211.252	14.0415	42.9679	-218.93	20.6098	74.5862	-230.217	47.8954	47.8846	
45	0.375	-216.032	84.3727	57.0897	-205.303	102.243	29.9151	-198.836	107.363	6.7978	-190.362	114.658	-13.8637	-212.266	50.0973	-23.508	-196.212	47.7162	-50.2012	-168.703	51.8504	-63.9305	-200.289	26.3583	-26.1587	-176.966	26.4675	-51.9821	-149.827	38.6199	-63.7057	-182.891	14.3337	-14.4096	-159.199	18.6236	-33.6553	-128.505	36.5128	-35.6734	-161.915	3.47422	8.16671	-142.379	10.1725	-3.61876	-127.81	28.1721	-17.2703	-207.884	12.2815	45.1795	-218.074	20.6458	77.8743	-229.085	47.2218	52.0229	
46	0.383333	-220.467	86.0593	56.1477	-210.726	106.751	33.3855	-205.59	111.515	8.07179	-195.557	115.622	-15.9999	-215.75	52.0234	-21.3102	-201.667	47.2697	-47.1879	-172.498	51.7513	-63.2145	-203.185	29.6535	-25.9944	-181.433	32.0694	-54.2965	-153.114	42.7981	-64.7377	-180.131	13.0429	-11.8617	-159.578	24.0068	-35.5031	-131.823	38.8826	-36.4831	-160.147	7.80708	7.321	-146.257	15.5543	-4.71232	-128.995	35.3052	-15.7237	-208.734	16.997	42.6385	-214.022	20.7101	78.6733	-229.415	48.6517	52.2928	
47	0.391667	-220.997	89.0678	59.4849	-210.95	104.904	34.8785	-210.562	117.65	7.20968	-202.247	126.228	-12.2861	-217.849	54.1602	-23.0903	-206.894	52.8649	-46.6621	-181.256	58.0586	-67.1786	-204.548	31.7703	-22.2893	-184.56	32.8106	-52.0471	-157.119	48.5846	-67.456	-179.525	18.6348	-15.9319	-160.819	28.7064	-35.9484	-133.228	45.6483	-38.9769	-163.247	12.6928	8.32427	-143.243	21.8182	-6.09606	-128.171	43.6366	-18.0082	-205.955	19.4888	45.863	-215.071	22.5972	75.1192	-230.617	49.314	53.2205	
48	0.4	-221.03	88.9695	64.4874	-212.387	107.284	38.6396	-213.844	121.178	11.3625	-204.913	125.866	-10.8473	-221.334	57.432	-19.6638	-209.352	53.7785	-47.0743	-186.525	59.4737	-67.1897	-205.365	33.7314	-21.8472	-189.888	39.9563	-53.9515	-161.488	54.9273	-69.8737	-184.634	25.0206	-13.2961	-159.258	30.9649	-37.208	-137.287	54.8956	-41.2103	-160.409	15.3324	5.42848	-144.148	27.8973	-9.93103	-131.917	45.2038	-20.5025	-206.187	19.178	45.8187	-211.786	22.4684	74.6454	-228.188	47.1346	56.2201	
49	0.408333	-222.748	93.0663	62.6727	-214.456	109.196	41.2332	-214.877	121.566	15.5941	-209.865	132.538	-7.46745	-223.72	60.5755	-19.9777	-214.026	60.1711	-48.2594	-194.438	65.3491	-67.7738	-209.401	38.061	-23.4586	-193.388	41.6019	-52.2657	-163.065	54.0181	-70.9819	-185.638	25.8337	-15.5298	-164.47	36.8236	-39.4714	-139.904	52.7359	-43.9977	-168.618	19.2373	7.71673	-150.502	29.8956	-10.035	-130.91	47.6167	-24.0651	-208.658	21.7394	42.4918	-212.559	26.7722	76.369	-229.409	51.1416	55.6672	
